<?xml version="1.0" encoding="UTF-8" standalone="no"?><!DOCTYPE svg PUBLIC "-//W3C//DTD SVG 1.1//EN" "http://www.w3.org/Graphics/SVG/1.1/DTD/svg11.dtd"><svg width="100%" height="100%" viewBox="0 0 120 72" version="1.1" xmlns="http://www.w3.org/2000/svg" xmlns:xlink="http://www.w3.org/1999/xlink" xml:space="preserve" xmlns:serif="http://www.serif.com/" style="fill-rule:evenodd;clip-rule:evenodd;stroke-linecap:round;stroke-linejoin:round;stroke-miterlimit:1.5;"><g id="Layer5"><path d="M14.1,23.921l-1.858,19.991c-0,-0 0.05,4.571 2.812,6.831c2.763,2.26 7.234,4.119 11.553,3.466c0,-0 -16.1,3.164 -21.751,-6.635c-6.716,-11.645 2.498,-21.99 9.244,-23.653Z" style="fill:#fff;"/><path d="M26.607,24.968l-4.513,19.037c-0,-0 -1.41,6.628 4.513,6.327c5.923,-0.302 6.576,-6.344 7.179,-8.798l2.26,0c0,0 1.314,-14.763 -9.439,-16.566Z" style="fill:#fff;"/><circle cx="21.947" cy="14.273" r="5.542" style="fill:#fff;stroke:#fff;stroke-width:0.15px;"/></g><g transform="matrix(16.2209,0,0,16.2209,115.662,37.588)"></g><text x="37.242px" y="37.588px" style="font-family:'ArialMT', 'Arial', sans-serif;font-size:16.221px;fill:#fff;">informatics</text><g transform="matrix(12.1562,0,0,12.1562,115.487,49.5615)"></g><text x="77.636px" y="49.561px" style="font-family:'ArialMT', 'Arial', sans-serif;font-size:12.156px;fill:#fff;">Baguio</text></svg>